# xmcd
#
# Track frame offsets:
#	150
#	15225
#	31065
#	44700
#	62043
#	77625
#	93366
#	109888
#	124710
#	149324
#	165019
#	190230
#	213979
#	225555
#	240314
#	257806
#	271590
#	286689
#
# Disc length: 4028 seconds
#
# Revision: 1
# Processed by: cddbd v1.4PL0 Copyright (c) Steve Scherf et al.
# Submitted via: EasyCDDAExtractor 5.0.7
#
DISCID=e00fba12
DTITLE=Traveling Wilburys
DYEAR=1900
DGENRE=
TTITLE0=Handle With Care
TTITLE1=Dirty World
TTITLE2=Rattled
TTITLE3=Last Night
TTITLE4=Not Alone Anymore
TTITLE5=Congratulations
TTITLE6=Heading For The Light
TTITLE7=Margarita
TTITLE8=Tweeter And The Monkey Man
TTITLE9=End Of The Line
TTITLE10=End Of The Line (Extended)
TTITLE11=Handle With Care (Extended)
TTITLE12=Dirty World (Demo)
TTITLE13=Congratulations (Demo)
TTITLE14=Last Night (Demo)
TTITLE15=Rattled (Demo)
TTITLE16=Handle With Care (Demo)
TTITLE17=End of The Line (Demo)
EXTD=
EXTT0=
EXTT1=
EXTT2=
EXTT3=
EXTT4=
EXTT5=
EXTT6=
EXTT7=
EXTT8=
EXTT9=
EXTT10=
EXTT11=
EXTT12=
EXTT13=
EXTT14=
EXTT15=
EXTT16=
EXTT17=
PLAYORDER=
